<svg id="svg2" xmlns:rdf="http://www.w3.org/1999/02/22-rdf-syntax-ns#" xmlns="http://www.w3.org/2000/svg" height="100%" width="100%" version="1.1" xmlns:cc="http://creativecommons.org/ns#" xmlns:dc="http://purl.org/dc/elements/1.1/" viewBox="0 0 1734.7864 936.54998">
 <g id="layer1" transform="translate(794.29 -218.77)">
  <g id="floor-0" style="stroke-width:5" transform="translate(1159.6 50.693)">
   <rect id="room-kitchen" style="fill-opacity:.45116;stroke:#000;stroke-width:5;fill:#ffb380" transform="rotate(90)" height="299.97" width="275.31" y="1314.5" x="715.86"/>
   <rect id="room-hallway" style="fill-opacity:.45116;stroke:#000;stroke-width:5;fill:#ffb380" transform="rotate(90)" height="318.25" width="184.78" y="1615.4" x="806.38"/>
   <path id="room-lounge" style="fill-opacity:.45116;fill-rule:evenodd;stroke:#000;stroke-width:5;fill:#ffb380" d="m-1593.6 411.6 0.505 132.11-21.098 9.0765s-1.4031 165.65-1.0663 252.51l-318.34 2.0203v-395.89z"/>
   <path id="room-dining" style="fill-opacity:.45116;fill-rule:evenodd;stroke:#000;stroke-width:5;fill:#ffb380" d="m-1592.8 411.45v133.2l23.571 17.143 9.2857 154.29s242.86 1.4286 244.29 0c1.4285-1.4286 1.4285 0 1.4285 0v-302.86z"/>
   <rect id="porch" style="stroke:#000;stroke-width:5;fill:#ccc" transform="rotate(90)" height="171.29" width="92.84" y="1762.4" x="991.57"/>
   <rect id="room-office" style="fill-opacity:.45116;stroke:#000;stroke-width:5;fill:#ffb380" transform="rotate(90)" height="232.91" width="325.74" y="1081" x="297.94"/>
   <rect id="room-utility" style="fill-opacity:.45116;stroke:#000;stroke-width:5;fill:#ffb380" transform="rotate(90)" height="232.8" width="215.69" y="1081.1" x="624.51"/>
   <rect id="boiler" style="stroke:#000;stroke-width:5;fill:#ccc" transform="rotate(90)" height="233.13" width="108.97" y="1080.9" x="188.22"/>
   <rect id="fireplace" style="stroke:#000;stroke-width:5;fill:#ccc" transform="rotate(90)" height="58.652" width="173.39" y="1555.7" x="541.72"/>
  </g>
  <g id="floor-1" style="stroke-width:5" transform="translate(-62.629 1095)">
   <rect id="room-bedroom-2" style="fill-opacity:.45098;stroke:#000;stroke-width:5;fill:#ffb47e" transform="rotate(90)" height="260.77" width="350.37" y="-982.87" x="-632.34"/>
   <path id="room-bedroom-master" style="fill-opacity:.45098;stroke:#000;stroke-width:5;fill:#ffb47e" d="m721.82-632.37v175.21 175.21h-360.36v-350.42z"/>
   <rect id="wardrobes" style="stroke:#000;stroke-width:5;fill:#ccc" transform="rotate(90)" height="58.577" width="219.67" y="-721.46" x="-632.38"/>
   <rect id="room-bathroom" style="fill-opacity:.45098;stroke:#000;stroke-width:5;fill:#ffb47e" transform="rotate(90)" height="163.52" width="229.36" y="-982.47" x="-282.88"/>
   <path id="room-bedroom-3" style="fill-opacity:.45098;fill-rule:evenodd;stroke:#000;stroke-width:5;fill:#ffb47e" d="m361.79-281.96v228.49l209.1-0.25254v-87.627h53.538v-141.58z"/>
   <path id="room-landing" style="fill-opacity:.45098;fill-rule:evenodd;stroke:#000;stroke-width:5;fill:#ffb47e" d="m819.41-282.82h-194.96v141.42l-53.538-0.25254v88.136h247.74z"/>
   <rect id="cupboard" style="stroke:#000;stroke-width:5;fill:#ccc" transform="rotate(90)" height="74.171" width="88.038" y="-570.71" x="-141.6"/>
  </g>
 </g>
</svg>
